<svg width="16" height="16" viewBox="0 0 16 16" fill="none" xmlns="http://www.w3.org/2000/svg">
<path d="M9.75879 7.20801C11.4062 7.20801 12.7461 5.75195 12.7461 3.96094C12.7461 2.2041 11.4131 0.795898 9.75879 0.795898C8.11133 0.795898 6.76465 2.21777 6.76465 3.97461C6.77148 5.75879 8.10449 7.20801 9.75879 7.20801ZM9.75879 6.02539C8.80859 6.02539 8.00879 5.12988 8.00879 3.97461C8.00195 2.84668 8.80176 1.97852 9.75879 1.97852C10.7158 1.97852 11.5088 2.83984 11.5088 3.96094C11.5088 5.11621 10.7158 6.02539 9.75879 6.02539ZM8.22754 13.5654H14.0176C15.1934 13.5654 15.7607 13.1963 15.7607 12.3965C15.7607 10.5234 13.4229 8.00781 9.75195 8.00781C8.5625 8.00781 7.50977 8.28125 6.63477 8.71191C6.96973 8.97852 7.26367 9.28613 7.50293 9.63477C8.13184 9.36133 8.89062 9.19043 9.75195 9.19043C12.7734 9.19043 14.4688 11.1592 14.4688 12.2051C14.4688 12.335 14.4072 12.3828 14.2432 12.3828H8.41895C8.40527 12.8066 8.35742 13.1689 8.22754 13.5654ZM3.93457 15.8008C5.8418 15.8008 7.45508 14.208 7.45508 12.2871C7.45508 10.3594 5.8623 8.7666 3.93457 8.7666C2.00684 8.7666 0.414062 10.3594 0.414062 12.2871C0.414062 14.2148 2.00684 15.8008 3.93457 15.8008ZM3.93457 14.5156C3.6543 14.5156 3.46973 14.3311 3.46973 14.0508V12.752H2.1709C1.89746 12.752 1.70605 12.5674 1.70605 12.2871C1.70605 12.0068 1.89062 11.8223 2.1709 11.8223H3.46973V10.5234C3.46973 10.25 3.6543 10.0586 3.93457 10.0586C4.21484 10.0586 4.39941 10.25 4.39941 10.5234V11.8223H5.69824C5.97168 11.8223 6.16309 12.0068 6.16309 12.2871C6.16309 12.5674 5.97168 12.752 5.69824 12.752H4.39941V14.0508C4.39941 14.3311 4.21484 14.5156 3.93457 14.5156Z" fill="white" fill-opacity="0.6"/>
</svg>
