<svg width="32" height="32" viewBox="0 0 32 32" fill="none" xmlns="http://www.w3.org/2000/svg">
<path d="M14 1.1547C15.2376 0.440169 16.7624 0.440169 18 1.1547L27.8564 6.8453C29.094 7.55983 29.8564 8.88034 29.8564 10.3094V21.6906C29.8564 23.1197 29.094 24.4402 27.8564 25.1547L18 30.8453C16.7624 31.5598 15.2376 31.5598 14 30.8453L4.14359 25.1547C2.90599 24.4402 2.14359 23.1197 2.14359 21.6906V10.3094C2.14359 8.88034 2.90599 7.55983 4.14359 6.8453L14 1.1547Z" stroke="url(#paint0_linear_419_1512)"/>
<path d="M15.7588 15.208C17.4062 15.208 18.7461 13.752 18.7461 11.9609C18.7461 10.2041 17.4131 8.7959 15.7588 8.7959C14.1113 8.7959 12.7646 10.2178 12.7646 11.9746C12.7715 13.7588 14.1045 15.208 15.7588 15.208ZM15.7588 14.0254C14.8086 14.0254 14.0088 13.1299 14.0088 11.9746C14.002 10.8467 14.8018 9.97852 15.7588 9.97852C16.7158 9.97852 17.5088 10.8398 17.5088 11.9609C17.5088 13.1162 16.7158 14.0254 15.7588 14.0254ZM14.2275 21.5654H20.0176C21.1934 21.5654 21.7607 21.1963 21.7607 20.3965C21.7607 18.5234 19.4229 16.0078 15.752 16.0078C14.5625 16.0078 13.5098 16.2812 12.6348 16.7119C12.9697 16.9785 13.2637 17.2861 13.5029 17.6348C14.1318 17.3613 14.8906 17.1904 15.752 17.1904C18.7734 17.1904 20.4688 19.1592 20.4688 20.2051C20.4688 20.335 20.4072 20.3828 20.2432 20.3828H14.4189C14.4053 20.8066 14.3574 21.1689 14.2275 21.5654ZM9.93457 23.8008C11.8418 23.8008 13.4551 22.208 13.4551 20.2871C13.4551 18.3594 11.8623 16.7666 9.93457 16.7666C8.00684 16.7666 6.41406 18.3594 6.41406 20.2871C6.41406 22.2148 8.00684 23.8008 9.93457 23.8008ZM9.93457 22.5156C9.6543 22.5156 9.46973 22.3311 9.46973 22.0508V20.752H8.1709C7.89746 20.752 7.70605 20.5674 7.70605 20.2871C7.70605 20.0068 7.89062 19.8223 8.1709 19.8223H9.46973V18.5234C9.46973 18.25 9.6543 18.0586 9.93457 18.0586C10.2148 18.0586 10.3994 18.25 10.3994 18.5234V19.8223H11.6982C11.9717 19.8223 12.1631 20.0068 12.1631 20.2871C12.1631 20.5674 11.9717 20.752 11.6982 20.752H10.3994V22.0508C10.3994 22.3311 10.2148 22.5156 9.93457 22.5156Z" fill="white" fill-opacity="0.6"/>
<defs>
<linearGradient id="paint0_linear_419_1512" x1="5.2" y1="4" x2="28.4" y2="24.8" gradientUnits="userSpaceOnUse">
<stop stop-color="#A73EE7"/>
<stop offset="1" stop-color="#00EBFF"/>
</linearGradient>
</defs>
</svg>
