<svg width="32" height="32" viewBox="0 0 32 32" fill="none" xmlns="http://www.w3.org/2000/svg">
<path d="M14 1.1547C15.2376 0.440169 16.7624 0.440169 18 1.1547L27.8564 6.8453C29.094 7.55983 29.8564 8.88034 29.8564 10.3094V21.6906C29.8564 23.1197 29.094 24.4402 27.8564 25.1547L18 30.8453C16.7624 31.5598 15.2376 31.5598 14 30.8453L4.14359 25.1547C2.90599 24.4402 2.14359 23.1197 2.14359 21.6906V10.3094C2.14359 8.88034 2.90599 7.55983 4.14359 6.8453L14 1.1547Z" stroke="url(#paint0_linear_419_1513)"/>
<path d="M8.96191 14.709C8.96191 14.9482 9.07129 15.1396 9.25586 15.2354V16.083C8.91406 16.2607 8.72949 16.6436 8.76367 17.1152C8.87305 17.9492 9.48145 19.3574 10.2061 20.499C11.2109 22.1602 11.8125 22.748 12.4688 22.748C13.3506 22.748 13.7676 21.9277 13.2754 21.0596L10.7324 16.5547C10.541 16.2197 10.2676 16.0352 9.92578 15.9941V15.1875C10.0625 15.0918 10.1445 14.9209 10.1445 14.709C10.1719 11.0723 12.373 8.74121 15.9072 8.74121C19.4414 8.74121 21.6357 11.0723 21.6631 14.709C21.6631 14.9209 21.7451 15.0918 21.8887 15.1875V15.9941C21.5469 16.0352 21.2666 16.2197 21.082 16.5547L18.5322 21.0596C18.04 21.9277 18.4639 22.748 19.3389 22.748C19.9951 22.748 20.5967 22.1602 21.6016 20.499C22.3262 19.3574 22.9346 17.9492 23.0439 17.1152C23.0781 16.6436 22.8936 16.2607 22.5518 16.083V15.2354C22.7363 15.1396 22.8457 14.9482 22.8457 14.709C22.8457 10.457 20.2002 7.55176 15.9072 7.55176C11.6074 7.55176 8.96191 10.457 8.96191 14.709ZM11.9014 11.2227C13.0088 10.6143 14.3281 10.3135 15.9072 10.3203C17.4795 10.3135 18.7988 10.6143 19.9062 11.2227C19.0244 10.0469 17.7188 9.43848 15.9072 9.43848C14.0889 9.43848 12.7832 10.0469 11.9014 11.2227ZM17.2266 21.3467C17.5068 21.5039 17.7666 21.4355 17.917 21.1689L20.7334 16.1992C20.8838 15.9463 20.8154 15.6797 20.5352 15.5225C20.0703 15.2559 19.5166 15.4404 19.2158 15.96L16.9326 19.9932C16.6387 20.5059 16.7686 21.0869 17.2266 21.3467ZM14.5811 21.3467C15.0391 21.0869 15.1689 20.5059 14.875 19.9932L12.5918 15.96C12.2979 15.4404 11.7441 15.2559 11.2793 15.5225C10.9922 15.6797 10.9307 15.9463 11.0742 16.1992L13.8906 21.1689C14.041 21.4355 14.3008 21.5039 14.5811 21.3467Z" fill="white" fill-opacity="0.6"/>
<defs>
<linearGradient id="paint0_linear_419_1513" x1="5.2" y1="4" x2="28.4" y2="24.8" gradientUnits="userSpaceOnUse">
<stop stop-color="#A73EE7"/>
<stop offset="1" stop-color="#00EBFF"/>
</linearGradient>
</defs>
</svg>
