<svg width="16" height="16" viewBox="0 0 16 16" fill="none" xmlns="http://www.w3.org/2000/svg">
<path d="M0.961914 7.70898C0.961914 7.94824 1.07129 8.13965 1.25586 8.23535V9.08301C0.914062 9.26074 0.729492 9.64355 0.763672 10.1152C0.873047 10.9492 1.48145 12.3574 2.20605 13.499C3.21094 15.1602 3.8125 15.748 4.46875 15.748C5.35059 15.748 5.76758 14.9277 5.27539 14.0596L2.73242 9.55469C2.54102 9.21973 2.26758 9.03516 1.92578 8.99414V8.1875C2.0625 8.0918 2.14453 7.9209 2.14453 7.70898C2.17188 4.07227 4.37305 1.74121 7.90723 1.74121C11.4414 1.74121 13.6357 4.07227 13.6631 7.70898C13.6631 7.9209 13.7451 8.0918 13.8887 8.1875V8.99414C13.5469 9.03516 13.2666 9.21973 13.082 9.55469L10.5322 14.0596C10.04 14.9277 10.4639 15.748 11.3389 15.748C11.9951 15.748 12.5967 15.1602 13.6016 13.499C14.3262 12.3574 14.9346 10.9492 15.0439 10.1152C15.0781 9.64355 14.8936 9.26074 14.5518 9.08301V8.23535C14.7363 8.13965 14.8457 7.94824 14.8457 7.70898C14.8457 3.45703 12.2002 0.551758 7.90723 0.551758C3.60742 0.551758 0.961914 3.45703 0.961914 7.70898ZM3.90137 4.22266C5.00879 3.61426 6.32812 3.31348 7.90723 3.32031C9.47949 3.31348 10.7988 3.61426 11.9062 4.22266C11.0244 3.04688 9.71875 2.43848 7.90723 2.43848C6.08887 2.43848 4.7832 3.04688 3.90137 4.22266ZM9.22656 14.3467C9.50684 14.5039 9.7666 14.4355 9.91699 14.1689L12.7334 9.19922C12.8838 8.94629 12.8154 8.67969 12.5352 8.52246C12.0703 8.25586 11.5166 8.44043 11.2158 8.95996L8.93262 12.9932C8.63867 13.5059 8.76855 14.0869 9.22656 14.3467ZM6.58105 14.3467C7.03906 14.0869 7.16895 13.5059 6.875 12.9932L4.5918 8.95996C4.29785 8.44043 3.74414 8.25586 3.2793 8.52246C2.99219 8.67969 2.93066 8.94629 3.07422 9.19922L5.89062 14.1689C6.04102 14.4355 6.30078 14.5039 6.58105 14.3467Z" fill="white" fill-opacity="0.6"/>
</svg>
