<svg width="32" height="32" viewBox="0 0 32 32" fill="none" xmlns="http://www.w3.org/2000/svg">
<path d="M14 1.1547C15.2376 0.440169 16.7624 0.440169 18 1.1547L27.8564 6.8453C29.094 7.55983 29.8564 8.88034 29.8564 10.3094V21.6906C29.8564 23.1197 29.094 24.4402 27.8564 25.1547L18 30.8453C16.7624 31.5598 15.2376 31.5598 14 30.8453L4.14359 25.1547C2.90599 24.4402 2.14359 23.1197 2.14359 21.6906V10.3094C2.14359 8.88034 2.90599 7.55983 4.14359 6.8453L14 1.1547Z" stroke="url(#paint0_linear_419_1514)"/>
<path d="M15.2324 16.8555C16.6201 16.8555 17.6318 15.8232 17.6318 14.3057V9.70508C17.6318 8.19434 16.6201 7.15527 15.2324 7.15527C13.8447 7.15527 12.833 8.19434 12.833 9.70508V14.3057C12.833 15.8232 13.8447 16.8555 15.2324 16.8555ZM10.0439 14.4629C10.0439 17.2725 11.9102 19.2002 14.6104 19.46V20.8613H12.0947C11.7461 20.8613 11.4521 21.1484 11.4521 21.5039C11.4521 21.8525 11.7461 22.1396 12.0947 22.1396H18.3701C18.7256 22.1396 19.0195 21.8525 19.0195 21.5039C19.0195 21.1484 18.7256 20.8613 18.3701 20.8613H15.8613V19.46C18.5547 19.2002 20.4277 17.2725 20.4277 14.4629V13.1094C20.4277 12.7539 20.1406 12.4736 19.7852 12.4736C19.4297 12.4736 19.1357 12.7539 19.1357 13.1094V14.415C19.1357 16.7393 17.5635 18.2773 15.2324 18.2773C12.9014 18.2773 11.3291 16.7393 11.3291 14.415V13.1094C11.3291 12.7539 11.042 12.4736 10.6865 12.4736C10.3311 12.4736 10.0439 12.7539 10.0439 13.1094V14.4629Z" fill="white" fill-opacity="0.6"/>
<defs>
<linearGradient id="paint0_linear_419_1514" x1="5.2" y1="4" x2="28.4" y2="24.8" gradientUnits="userSpaceOnUse">
<stop stop-color="#A73EE7"/>
<stop offset="1" stop-color="#00EBFF"/>
</linearGradient>
</defs>
</svg>
