<svg width="11" height="16" viewBox="0 0 11 16" fill="none" xmlns="http://www.w3.org/2000/svg">
<path d="M5.23242 9.85547C6.62012 9.85547 7.63184 8.82324 7.63184 7.30566V2.70508C7.63184 1.19434 6.62012 0.155273 5.23242 0.155273C3.84473 0.155273 2.83301 1.19434 2.83301 2.70508V7.30566C2.83301 8.82324 3.84473 9.85547 5.23242 9.85547ZM0.0439453 7.46289C0.0439453 10.2725 1.91016 12.2002 4.61035 12.46V13.8613H2.09473C1.74609 13.8613 1.45215 14.1484 1.45215 14.5039C1.45215 14.8525 1.74609 15.1396 2.09473 15.1396H8.37012C8.72559 15.1396 9.01953 14.8525 9.01953 14.5039C9.01953 14.1484 8.72559 13.8613 8.37012 13.8613H5.86133V12.46C8.55469 12.2002 10.4277 10.2725 10.4277 7.46289V6.10938C10.4277 5.75391 10.1406 5.47363 9.78516 5.47363C9.42969 5.47363 9.13574 5.75391 9.13574 6.10938V7.41504C9.13574 9.73926 7.56348 11.2773 5.23242 11.2773C2.90137 11.2773 1.3291 9.73926 1.3291 7.41504V6.10938C1.3291 5.75391 1.04199 5.47363 0.686523 5.47363C0.331055 5.47363 0.0439453 5.75391 0.0439453 6.10938V7.46289Z" fill="white" fill-opacity="0.6"/>
</svg>
