<svg width="250" height="38" viewBox="0 0 250 38" fill="none" xmlns="http://www.w3.org/2000/svg">
<path d="M1 18V20M5 17V21M9 15V23M13 11V27M17 7V31M21 1V37M25 9V29M29 10V28M33 13V25M37 16V22M41 18V20M45 18V20M49 18V20M53 18V20M57 14V24M61 9V29M65 11V27M69 7V31M73 1V37M77 4V34M81 10V28M85 13V25M89 16V22M93 18V20M97 18V20M101 18V20M105 18V20M109 17V21M113 15V23M117 11V27M121 7V31M125 1V37M129 9V29M133 9V29M137 4V34M141 1V37M145 9V29M149 15V23M153 15V23M157 15V23M161 14V24M165 9V29M169 1V37M173 4V34M177 1V37M181 4V34M185 1V37M189 9V29M193 15V23M197 18V20M201 18V20M205 14V24M209 9V29M213 14V24M217 4V34M221 1V37M225 4V34M229 1V37M233 9V29M237 9V29M241 14V24M245 16V22M249 18V20" stroke="url(#paint0_linear_597_368)" stroke-width="1.5" stroke-linecap="round"/>
<defs>
<linearGradient id="paint0_linear_597_368" x1="15" y1="37" x2="249" y2="37" gradientUnits="userSpaceOnUse">
<stop stop-color="#00E9FF"/>
<stop offset="1" stop-color="#FF00D8"/>
</linearGradient>
</defs>
</svg>
